<svg width="67" height="76" viewBox="0 0 67 76" fill="none" xmlns="http://www.w3.org/2000/svg">
<rect x="29.7" width="7.37" height="16.6667" fill="#979797"/>
<path fill-rule="evenodd" clip-rule="evenodd" d="M0 42.6666C0 33.8296 3.5319 25.3453 9.81182 19.0963C16.0921 12.8476 24.6188 9.33331 33.5 9.33331C42.3812 9.33331 50.9079 12.8476 57.1882 19.0963C63.4681 25.3453 67 33.8296 67 42.6666C67 51.5036 63.4681 59.988 57.1882 66.237C50.9079 72.4856 42.3812 76 33.5 76C24.6188 76 16.0921 72.4856 9.81182 66.237C3.5319 59.988 0 51.5036 0 42.6666Z" fill="white"/>
<path fill-rule="evenodd" clip-rule="evenodd" d="M39.4753 48.5047L35.6584 39.559C35.254 38.6114 34.377 38.1374 33.5 38.1374C32.6229 38.1374 31.7459 38.6114 31.3415 39.559L27.5242 48.5047C26.0405 47.0014 25.125 44.9407 25.125 42.6667C25.125 38.0644 28.8746 34.3334 33.5 34.3334C38.1253 34.3334 41.875 38.0644 41.875 42.6667C41.875 44.9407 40.9594 47.0014 39.4753 48.5047ZM30.6133 45.5304L32.8832 40.2104C33.034 39.857 33.3345 39.804 33.5 39.804C33.6654 39.804 33.9659 39.857 34.1167 40.2104L36.3866 45.5304H30.6133ZM40.6063 35.5957C38.7082 33.707 36.1843 32.6667 33.5 32.6667C30.8156 32.6667 28.2917 33.707 26.3936 35.5957C24.4952 37.4844 23.45 39.9957 23.45 42.6667C23.45 45.3377 24.4952 47.849 26.3936 49.7377C28.2917 51.6267 30.8156 52.6667 33.5 52.6667C36.1843 52.6667 38.7082 51.6267 40.6063 49.7377C42.5048 47.849 43.55 45.3377 43.55 42.6667C43.55 39.9957 42.5048 37.4844 40.6063 35.5957Z" fill="#979797"/>
<path fill-rule="evenodd" clip-rule="evenodd" d="M24.12 68.6667C24.12 68.49 24.1907 68.3203 24.3163 68.1953C24.4419 68.0703 24.6124 68 24.79 68C24.9675 68 25.1381 68.0703 25.2637 68.1953C25.3893 68.3203 25.46 68.49 25.46 68.6667C25.46 68.8433 25.3893 69.013 25.2637 69.138C25.1381 69.263 24.9675 69.3333 24.79 69.3333C24.6124 69.3333 24.4419 69.263 24.3163 69.138C24.1907 69.013 24.12 68.8433 24.12 68.6667Z" fill="#979797"/>
<path fill-rule="evenodd" clip-rule="evenodd" d="M41.54 68.6667C41.54 68.49 41.6107 68.3203 41.7363 68.1953C41.862 68.0703 42.0325 68 42.21 68C42.3876 68 42.5581 68.0703 42.6837 68.1953C42.8094 68.3203 42.88 68.49 42.88 68.6667C42.88 68.8433 42.8094 69.013 42.6837 69.138C42.5581 69.263 42.3876 69.3333 42.21 69.3333C42.0325 69.3333 41.862 69.263 41.7363 69.138C41.6107 69.013 41.54 68.8433 41.54 68.6667Z" fill="#979797"/>
<path fill-rule="evenodd" clip-rule="evenodd" d="M33.5 76C14.9986 76 0 61.076 0 42.6666C0 24.2573 14.9986 9.33331 33.5 9.33331C52.0014 9.33331 67 24.2573 67 42.6666C67 61.076 52.0014 76 33.5 76ZM33.5 74.66C51.2577 74.66 65.6533 60.336 65.6533 42.6666C65.6533 24.9973 51.2577 10.6733 33.5 10.6733C15.7423 10.6733 1.3467 24.9973 1.3467 42.6666C1.3467 60.336 15.7423 74.66 33.5 74.66Z" fill="#979797"/>
</svg>
