<svg width="100" height="105" viewBox="0 0 100 105" fill="none" xmlns="http://www.w3.org/2000/svg">
<rect x="10" width="11" height="25" fill="#979797"/>
<rect x="79" width="11" height="25" fill="#979797"/>
<path fill-rule="evenodd" clip-rule="evenodd" d="M0 55C0 41.7445 5.2715 29.018 14.6445 19.6445C24.018 10.2715 36.7445 5 50 5C63.2555 5 75.982 10.2715 85.3555 19.6445C94.7285 29.018 100 41.7445 100 55C100 68.2555 94.7285 80.982 85.3555 90.3555C75.982 99.7285 63.2555 105 50 105C36.7445 105 24.018 99.7285 14.6445 90.3555C5.2715 80.982 0 68.2555 0 55Z" fill="white"/>
<path fill-rule="evenodd" clip-rule="evenodd" d="M58.9185 63.757L53.2215 50.3385C52.618 48.917 51.309 48.206 50 48.206C48.691 48.206 47.382 48.917 46.7785 50.3385L41.081 63.757C38.8665 61.502 37.5 58.411 37.5 55C37.5 48.0965 43.0965 42.5 50 42.5C56.9035 42.5 62.5 48.0965 62.5 55C62.5 58.411 61.1335 61.502 58.9185 63.757ZM45.6915 59.2955L49.0795 51.3155C49.3045 50.7855 49.753 50.706 50 50.706C50.247 50.706 50.6955 50.7855 50.9205 51.3155L54.3085 59.2955H45.6915ZM60.6065 44.3935C57.7735 41.5605 54.0065 40 50 40C45.9935 40 42.2265 41.5605 39.3935 44.3935C36.56 47.2265 35 50.9935 35 55C35 59.0065 36.56 62.7735 39.3935 65.6065C42.2265 68.44 45.9935 70 50 70C54.0065 70 57.7735 68.44 60.6065 65.6065C63.44 62.7735 65 59.0065 65 55C65 50.9935 63.44 47.2265 60.6065 44.3935Z" fill="#979797"/>
<path fill-rule="evenodd" clip-rule="evenodd" d="M36 94C36 93.735 36.1055 93.4805 36.293 93.293C36.4805 93.1055 36.735 93 37 93C37.265 93 37.5195 93.1055 37.707 93.293C37.8945 93.4805 38 93.735 38 94C38 94.265 37.8945 94.5195 37.707 94.707C37.5195 94.8945 37.265 95 37 95C36.735 95 36.4805 94.8945 36.293 94.707C36.1055 94.5195 36 94.265 36 94Z" fill="#979797"/>
<path fill-rule="evenodd" clip-rule="evenodd" d="M62 94C62 93.735 62.1055 93.4805 62.293 93.293C62.4805 93.1055 62.735 93 63 93C63.265 93 63.5195 93.1055 63.707 93.293C63.8945 93.4805 64 93.735 64 94C64 94.265 63.8945 94.5195 63.707 94.707C63.5195 94.8945 63.265 95 63 95C62.735 95 62.4805 94.8945 62.293 94.707C62.1055 94.5195 62 94.265 62 94Z" fill="#979797"/>
<path fill-rule="evenodd" clip-rule="evenodd" d="M50 105C22.386 105 0 82.614 0 55C0 27.386 22.386 5 50 5C77.614 5 100 27.386 100 55C100 82.614 77.614 105 50 105ZM50 102.99C76.504 102.99 97.99 81.504 97.99 55C97.99 28.496 76.504 7.01 50 7.01C23.496 7.01 2.01 28.496 2.01 55C2.01 81.504 23.496 102.99 50 102.99Z" fill="#979797"/>
</svg>
