<svg width="30" height="30" viewBox="0 0 30 30" fill="none" xmlns="http://www.w3.org/2000/svg">
<path d="M10 13.2C10 11.4 10.9 9.79999 12.5 8.89999C13.1 8.59999 13.3 7.79999 12.9 7.19999L9.2 0.599989C9.1 0.299989 8.3 -0.300012 7.5 0.199988C2.9 2.89999 0 7.79999 0 13.2C0 13.9 0.6 14.4 1.2 14.4H8.7C9.4 14.4 10 13.8 10 13.2ZM2.6 11.9C2.9 8.29999 4.8 5.09999 7.7 3.09999L10.2 7.39999C8.9 8.49999 7.8 10.2 7.6 11.9H2.6Z" fill="#979797"/>
<path d="M21.2999 14.4H28.7999C29.4999 14.4 29.9999 13.8 29.9999 13.2C29.9999 7.80001 27.0999 2.90001 22.4999 0.200011C21.6999 -0.199989 20.8999 0.300011 20.7999 0.600011L17.0999 7.20001C16.7999 7.80001 16.9999 8.50001 17.4999 8.90001C19.0999 9.80001 19.9999 11.4 19.9999 13.2C19.9999 13.8 20.5999 14.4 21.2999 14.4ZM27.3999 11.8H22.3999C22.1999 10.1 21.1999 8.40001 19.7999 7.30001L22.2999 3.00001C25.1999 5.00001 27.0999 8.30001 27.3999 11.8C27.3999 11.9 27.3999 11.8 27.3999 11.8Z" fill="#979797"/>
<path d="M10.7 18L6.89999 24.5C6.59999 25.1 6.79999 25.8 7.29999 26.2C12 28.9 17.7 28.9 22.3 26.2C23.1 25.8 23 24.7 22.7 24.5L18.9 18C18.6 17.4 17.8 17.2 17.2 17.6C15.6 18.5 13.8 18.5 12.3 17.6C11.9 17.2 11.1 17.4 10.7 18ZM9.99999 24.6L12.6 20.2C14.2 20.9 16.1 20.8 17.7 20.2L20.2 24.5C16.9 26 13.1 26 9.99999 24.6Z" fill="#979797"/>
<path d="M11.6 13.2C11.6 12.482 11.827 11.782 12.249 11.202C12.671 10.621 13.267 10.188 13.949 9.96598C14.632 9.74498 15.368 9.74498 16.051 9.96598C16.733 10.188 17.329 10.621 17.751 11.202C18.173 11.782 18.4 12.482 18.4 13.2C18.4 14.101 18.042 14.967 17.404 15.604C16.767 16.242 15.901 16.6 15 16.6C14.099 16.6 13.233 16.242 12.596 15.604C11.958 14.967 11.6 14.101 11.6 13.2Z" fill="#979797"/>
</svg>
